<mxfile host="app.diagrams.net" modified="2022-05-29T09:52:58.505Z" agent="5.0 (Windows NT 10.0; Win64; x64) AppleWebKit/537.36 (KHTML, like Gecko) Chrome/101.0.4951.67 Safari/537.36" etag="Aw8DgS277r5efBYqeA98" version="18.1.3" type="github">
  <diagram id="KjHWWoCJxuQJ72HRNBTu" name="第 1 页">
    <mxGraphModel dx="3422" dy="1538" grid="1" gridSize="10" guides="1" tooltips="1" connect="1" arrows="1" fold="1" page="1" pageScale="1" pageWidth="827" pageHeight="1169" math="0" shadow="0">
      <root>
        <mxCell id="0" />
        <mxCell id="1" parent="0" />
        <mxCell id="9tJJCU2KlGgRThkZYkHL-94" value="" style="rounded=0;whiteSpace=wrap;html=1;labelBackgroundColor=#FFFFFF;fontSize=14;strokeWidth=2;fillColor=none;dashed=1;strokeColor=#3333FF;" vertex="1" parent="1">
          <mxGeometry x="-270" y="1270" width="830" height="250" as="geometry" />
        </mxCell>
        <mxCell id="9tJJCU2KlGgRThkZYkHL-93" style="edgeStyle=orthogonalEdgeStyle;rounded=0;orthogonalLoop=1;jettySize=auto;html=1;entryX=0.5;entryY=0;entryDx=0;entryDy=0;fontSize=14;" edge="1" parent="1" source="9tJJCU2KlGgRThkZYkHL-88" target="9tJJCU2KlGgRThkZYkHL-92">
          <mxGeometry relative="1" as="geometry" />
        </mxCell>
        <mxCell id="9tJJCU2KlGgRThkZYkHL-88" value="" style="rounded=0;whiteSpace=wrap;html=1;labelBackgroundColor=#FFFFFF;fontSize=14;strokeWidth=2;fillColor=none;dashed=1;" vertex="1" parent="1">
          <mxGeometry x="-310" y="560" width="1350" height="990" as="geometry" />
        </mxCell>
        <mxCell id="9tJJCU2KlGgRThkZYkHL-3" style="edgeStyle=orthogonalEdgeStyle;rounded=0;orthogonalLoop=1;jettySize=auto;html=1;entryX=0.5;entryY=0;entryDx=0;entryDy=0;fontSize=14;" edge="1" parent="1" source="9tJJCU2KlGgRThkZYkHL-1" target="9tJJCU2KlGgRThkZYkHL-2">
          <mxGeometry relative="1" as="geometry" />
        </mxCell>
        <mxCell id="9tJJCU2KlGgRThkZYkHL-5" style="edgeStyle=orthogonalEdgeStyle;rounded=0;orthogonalLoop=1;jettySize=auto;html=1;entryX=1;entryY=0.5;entryDx=0;entryDy=0;fontSize=14;" edge="1" parent="1" source="9tJJCU2KlGgRThkZYkHL-1" target="9tJJCU2KlGgRThkZYkHL-4">
          <mxGeometry relative="1" as="geometry" />
        </mxCell>
        <mxCell id="9tJJCU2KlGgRThkZYkHL-1" value="&lt;font style=&quot;font-size: 14px;&quot;&gt;开始&lt;/font&gt;" style="ellipse;whiteSpace=wrap;html=1;strokeWidth=2;fillColor=#f9f7ed;strokeColor=#36393d;" vertex="1" parent="1">
          <mxGeometry x="340" y="20" width="120" height="80" as="geometry" />
        </mxCell>
        <mxCell id="9tJJCU2KlGgRThkZYkHL-7" style="edgeStyle=orthogonalEdgeStyle;rounded=0;orthogonalLoop=1;jettySize=auto;html=1;entryX=0.5;entryY=0;entryDx=0;entryDy=0;fontSize=14;" edge="1" parent="1" source="9tJJCU2KlGgRThkZYkHL-2" target="9tJJCU2KlGgRThkZYkHL-6">
          <mxGeometry relative="1" as="geometry" />
        </mxCell>
        <mxCell id="9tJJCU2KlGgRThkZYkHL-2" value="gain" style="rounded=1;whiteSpace=wrap;html=1;fontSize=14;strokeWidth=2;" vertex="1" parent="1">
          <mxGeometry x="340" y="140" width="120" height="60" as="geometry" />
        </mxCell>
        <mxCell id="9tJJCU2KlGgRThkZYkHL-4" value="1.授权&lt;br&gt;2.日志记录&lt;br&gt;3.put类型方法" style="shape=parallelogram;perimeter=parallelogramPerimeter;whiteSpace=wrap;html=1;fixedSize=1;fontSize=14;strokeWidth=2;" vertex="1" parent="1">
          <mxGeometry x="30" y="30" width="150" height="60" as="geometry" />
        </mxCell>
        <mxCell id="9tJJCU2KlGgRThkZYkHL-11" style="edgeStyle=orthogonalEdgeStyle;rounded=0;orthogonalLoop=1;jettySize=auto;html=1;entryX=0.5;entryY=0;entryDx=0;entryDy=0;fontSize=14;" edge="1" parent="1" source="9tJJCU2KlGgRThkZYkHL-6" target="9tJJCU2KlGgRThkZYkHL-10">
          <mxGeometry relative="1" as="geometry" />
        </mxCell>
        <mxCell id="9tJJCU2KlGgRThkZYkHL-13" style="edgeStyle=orthogonalEdgeStyle;rounded=0;orthogonalLoop=1;jettySize=auto;html=1;entryX=0.5;entryY=0;entryDx=0;entryDy=0;fontSize=14;" edge="1" parent="1" source="9tJJCU2KlGgRThkZYkHL-6" target="9tJJCU2KlGgRThkZYkHL-12">
          <mxGeometry relative="1" as="geometry" />
        </mxCell>
        <mxCell id="9tJJCU2KlGgRThkZYkHL-15" style="edgeStyle=orthogonalEdgeStyle;rounded=0;orthogonalLoop=1;jettySize=auto;html=1;entryX=0.5;entryY=0;entryDx=0;entryDy=0;fontSize=14;" edge="1" parent="1" source="9tJJCU2KlGgRThkZYkHL-6" target="9tJJCU2KlGgRThkZYkHL-14">
          <mxGeometry relative="1" as="geometry" />
        </mxCell>
        <mxCell id="9tJJCU2KlGgRThkZYkHL-6" value="tlClueServiceImpl中的gain方法" style="rounded=1;whiteSpace=wrap;html=1;fontSize=14;strokeWidth=2;" vertex="1" parent="1">
          <mxGeometry x="305" y="240" width="190" height="60" as="geometry" />
        </mxCell>
        <mxCell id="9tJJCU2KlGgRThkZYkHL-9" style="edgeStyle=orthogonalEdgeStyle;rounded=0;orthogonalLoop=1;jettySize=auto;html=1;entryX=1;entryY=0.5;entryDx=0;entryDy=0;fontSize=14;" edge="1" parent="1" source="9tJJCU2KlGgRThkZYkHL-8" target="9tJJCU2KlGgRThkZYkHL-6">
          <mxGeometry relative="1" as="geometry" />
        </mxCell>
        <mxCell id="9tJJCU2KlGgRThkZYkHL-8" value="参数：clueIds数组,userId" style="rounded=0;whiteSpace=wrap;html=1;fontSize=14;strokeWidth=2;" vertex="1" parent="1">
          <mxGeometry x="580" y="240" width="120" height="60" as="geometry" />
        </mxCell>
        <mxCell id="9tJJCU2KlGgRThkZYkHL-69" style="edgeStyle=orthogonalEdgeStyle;rounded=0;orthogonalLoop=1;jettySize=auto;html=1;entryX=0.5;entryY=0;entryDx=0;entryDy=0;fontSize=14;startArrow=none;" edge="1" parent="1" source="9tJJCU2KlGgRThkZYkHL-70" target="9tJJCU2KlGgRThkZYkHL-68">
          <mxGeometry relative="1" as="geometry">
            <Array as="points">
              <mxPoint x="25" y="1290" />
            </Array>
          </mxGeometry>
        </mxCell>
        <mxCell id="9tJJCU2KlGgRThkZYkHL-10" value="判断clueIds数组长度&amp;gt;1" style="rhombus;whiteSpace=wrap;html=1;fontSize=14;strokeWidth=2;" vertex="1" parent="1">
          <mxGeometry x="-60" y="330" width="170" height="80" as="geometry" />
        </mxCell>
        <mxCell id="9tJJCU2KlGgRThkZYkHL-18" style="edgeStyle=orthogonalEdgeStyle;rounded=0;orthogonalLoop=1;jettySize=auto;html=1;entryX=0;entryY=0.5;entryDx=0;entryDy=0;fontSize=14;startArrow=none;" edge="1" parent="1" source="9tJJCU2KlGgRThkZYkHL-19" target="9tJJCU2KlGgRThkZYkHL-16">
          <mxGeometry relative="1" as="geometry">
            <Array as="points">
              <mxPoint x="230" y="510" />
            </Array>
          </mxGeometry>
        </mxCell>
        <mxCell id="9tJJCU2KlGgRThkZYkHL-12" value="查询对应线索池" style="rounded=1;whiteSpace=wrap;html=1;fontSize=14;strokeWidth=2;" vertex="1" parent="1">
          <mxGeometry x="170" y="340" width="120" height="60" as="geometry" />
        </mxCell>
        <mxCell id="9tJJCU2KlGgRThkZYkHL-17" style="edgeStyle=orthogonalEdgeStyle;rounded=0;orthogonalLoop=1;jettySize=auto;html=1;entryX=0.5;entryY=0;entryDx=0;entryDy=0;fontSize=14;" edge="1" parent="1" source="9tJJCU2KlGgRThkZYkHL-14" target="9tJJCU2KlGgRThkZYkHL-16">
          <mxGeometry relative="1" as="geometry" />
        </mxCell>
        <mxCell id="9tJJCU2KlGgRThkZYkHL-14" value="根据userId统计其拥有的线索数量" style="rounded=1;whiteSpace=wrap;html=1;fontSize=14;strokeWidth=2;" vertex="1" parent="1">
          <mxGeometry x="340" y="340" width="120" height="60" as="geometry" />
        </mxCell>
        <mxCell id="9tJJCU2KlGgRThkZYkHL-22" style="edgeStyle=orthogonalEdgeStyle;rounded=0;orthogonalLoop=1;jettySize=auto;html=1;entryX=0;entryY=0.5;entryDx=0;entryDy=0;fontSize=14;startArrow=none;" edge="1" parent="1" source="9tJJCU2KlGgRThkZYkHL-23" target="9tJJCU2KlGgRThkZYkHL-21">
          <mxGeometry relative="1" as="geometry" />
        </mxCell>
        <mxCell id="9tJJCU2KlGgRThkZYkHL-26" style="edgeStyle=orthogonalEdgeStyle;rounded=0;orthogonalLoop=1;jettySize=auto;html=1;entryX=0.5;entryY=0;entryDx=0;entryDy=0;fontSize=14;startArrow=none;" edge="1" parent="1" source="9tJJCU2KlGgRThkZYkHL-27" target="9tJJCU2KlGgRThkZYkHL-25">
          <mxGeometry relative="1" as="geometry" />
        </mxCell>
        <mxCell id="9tJJCU2KlGgRThkZYkHL-16" value="用户线索数量 &amp;gt;= 池子最大保有量" style="rhombus;whiteSpace=wrap;html=1;fontSize=14;strokeWidth=2;fillColor=#60a917;fontColor=#ffffff;strokeColor=#2D7600;" vertex="1" parent="1">
          <mxGeometry x="275" y="470" width="250" height="80" as="geometry" />
        </mxCell>
        <mxCell id="9tJJCU2KlGgRThkZYkHL-19" value="最大保有量" style="text;html=1;strokeColor=none;fillColor=none;align=center;verticalAlign=middle;whiteSpace=wrap;rounded=0;fontSize=14;" vertex="1" parent="1">
          <mxGeometry x="190" y="430" width="80" height="30" as="geometry" />
        </mxCell>
        <mxCell id="9tJJCU2KlGgRThkZYkHL-20" value="" style="edgeStyle=orthogonalEdgeStyle;rounded=0;orthogonalLoop=1;jettySize=auto;html=1;entryX=0.5;entryY=0;entryDx=0;entryDy=0;fontSize=14;endArrow=none;" edge="1" parent="1" source="9tJJCU2KlGgRThkZYkHL-12" target="9tJJCU2KlGgRThkZYkHL-19">
          <mxGeometry relative="1" as="geometry">
            <mxPoint x="230" y="400" as="sourcePoint" />
            <mxPoint x="275" y="490" as="targetPoint" />
          </mxGeometry>
        </mxCell>
        <mxCell id="9tJJCU2KlGgRThkZYkHL-21" value="自定义异常" style="rounded=0;whiteSpace=wrap;html=1;fontSize=14;strokeWidth=2;" vertex="1" parent="1">
          <mxGeometry x="635" y="480" width="120" height="60" as="geometry" />
        </mxCell>
        <mxCell id="9tJJCU2KlGgRThkZYkHL-23" value="true" style="text;html=1;strokeColor=none;fillColor=none;align=center;verticalAlign=middle;whiteSpace=wrap;rounded=0;fontSize=14;" vertex="1" parent="1">
          <mxGeometry x="555" y="495" width="30" height="30" as="geometry" />
        </mxCell>
        <mxCell id="9tJJCU2KlGgRThkZYkHL-24" value="" style="edgeStyle=orthogonalEdgeStyle;rounded=0;orthogonalLoop=1;jettySize=auto;html=1;entryX=0;entryY=0.5;entryDx=0;entryDy=0;fontSize=14;endArrow=none;" edge="1" parent="1" source="9tJJCU2KlGgRThkZYkHL-16" target="9tJJCU2KlGgRThkZYkHL-23">
          <mxGeometry relative="1" as="geometry">
            <mxPoint x="520" y="510" as="sourcePoint" />
            <mxPoint x="635" y="510" as="targetPoint" />
          </mxGeometry>
        </mxCell>
        <mxCell id="9tJJCU2KlGgRThkZYkHL-30" style="edgeStyle=orthogonalEdgeStyle;rounded=0;orthogonalLoop=1;jettySize=auto;html=1;entryX=0.5;entryY=0;entryDx=0;entryDy=0;fontSize=14;" edge="1" parent="1" source="9tJJCU2KlGgRThkZYkHL-25" target="9tJJCU2KlGgRThkZYkHL-29">
          <mxGeometry relative="1" as="geometry" />
        </mxCell>
        <mxCell id="9tJJCU2KlGgRThkZYkHL-25" value="遍历clueIds数组，拿出每一个clueId" style="rounded=1;whiteSpace=wrap;html=1;fontSize=14;strokeWidth=2;" vertex="1" parent="1">
          <mxGeometry x="315" y="610" width="170" height="60" as="geometry" />
        </mxCell>
        <mxCell id="9tJJCU2KlGgRThkZYkHL-27" value="False" style="text;html=1;strokeColor=none;fillColor=none;align=center;verticalAlign=middle;whiteSpace=wrap;rounded=0;fontSize=14;" vertex="1" parent="1">
          <mxGeometry x="370" y="560" width="60" height="25" as="geometry" />
        </mxCell>
        <mxCell id="9tJJCU2KlGgRThkZYkHL-28" value="" style="edgeStyle=orthogonalEdgeStyle;rounded=0;orthogonalLoop=1;jettySize=auto;html=1;entryX=0.5;entryY=0;entryDx=0;entryDy=0;fontSize=14;endArrow=none;" edge="1" parent="1" source="9tJJCU2KlGgRThkZYkHL-16" target="9tJJCU2KlGgRThkZYkHL-27">
          <mxGeometry relative="1" as="geometry">
            <mxPoint x="400" y="550" as="sourcePoint" />
            <mxPoint x="400" y="600" as="targetPoint" />
            <Array as="points">
              <mxPoint x="400" y="560" />
              <mxPoint x="400" y="560" />
            </Array>
          </mxGeometry>
        </mxCell>
        <mxCell id="9tJJCU2KlGgRThkZYkHL-33" style="edgeStyle=orthogonalEdgeStyle;rounded=0;orthogonalLoop=1;jettySize=auto;html=1;entryX=0;entryY=0.5;entryDx=0;entryDy=0;fontSize=14;startArrow=none;" edge="1" parent="1" source="9tJJCU2KlGgRThkZYkHL-34" target="9tJJCU2KlGgRThkZYkHL-32">
          <mxGeometry relative="1" as="geometry" />
        </mxCell>
        <mxCell id="9tJJCU2KlGgRThkZYkHL-47" style="edgeStyle=orthogonalEdgeStyle;rounded=0;orthogonalLoop=1;jettySize=auto;html=1;entryX=0.5;entryY=0;entryDx=0;entryDy=0;fontSize=14;startArrow=none;" edge="1" parent="1" source="9tJJCU2KlGgRThkZYkHL-44" target="9tJJCU2KlGgRThkZYkHL-40">
          <mxGeometry relative="1" as="geometry" />
        </mxCell>
        <mxCell id="9tJJCU2KlGgRThkZYkHL-29" value="用户线索数量+数组索引值 &amp;gt;= 池子最大保有量" style="rhombus;whiteSpace=wrap;html=1;fontSize=14;strokeWidth=2;fillColor=#fff2cc;gradientColor=#ffd966;strokeColor=#d6b656;" vertex="1" parent="1">
          <mxGeometry x="210" y="710" width="380" height="80" as="geometry" />
        </mxCell>
        <mxCell id="9tJJCU2KlGgRThkZYkHL-32" value="自定义异常" style="rounded=0;whiteSpace=wrap;html=1;fontSize=14;strokeWidth=2;" vertex="1" parent="1">
          <mxGeometry x="670" y="720" width="120" height="60" as="geometry" />
        </mxCell>
        <mxCell id="9tJJCU2KlGgRThkZYkHL-34" value="true" style="text;html=1;strokeColor=none;fillColor=none;align=center;verticalAlign=middle;whiteSpace=wrap;rounded=0;fontSize=14;" vertex="1" parent="1">
          <mxGeometry x="610" y="735" width="40" height="30" as="geometry" />
        </mxCell>
        <mxCell id="9tJJCU2KlGgRThkZYkHL-39" value="" style="endArrow=none;html=1;rounded=0;fontSize=14;exitX=1;exitY=0.5;exitDx=0;exitDy=0;entryX=0;entryY=0.5;entryDx=0;entryDy=0;" edge="1" parent="1" source="9tJJCU2KlGgRThkZYkHL-29" target="9tJJCU2KlGgRThkZYkHL-34">
          <mxGeometry width="50" height="50" relative="1" as="geometry">
            <mxPoint x="590" y="770" as="sourcePoint" />
            <mxPoint x="640" y="720" as="targetPoint" />
          </mxGeometry>
        </mxCell>
        <mxCell id="9tJJCU2KlGgRThkZYkHL-51" style="edgeStyle=orthogonalEdgeStyle;rounded=0;orthogonalLoop=1;jettySize=auto;html=1;entryX=0.5;entryY=0;entryDx=0;entryDy=0;fontSize=14;" edge="1" parent="1" source="9tJJCU2KlGgRThkZYkHL-40" target="9tJJCU2KlGgRThkZYkHL-50">
          <mxGeometry relative="1" as="geometry" />
        </mxCell>
        <mxCell id="9tJJCU2KlGgRThkZYkHL-40" value="根据assignId查询分配记录" style="rounded=1;whiteSpace=wrap;html=1;fontSize=14;strokeWidth=2;" vertex="1" parent="1">
          <mxGeometry x="325" y="870" width="150" height="60" as="geometry" />
        </mxCell>
        <mxCell id="9tJJCU2KlGgRThkZYkHL-45" value="" style="edgeStyle=orthogonalEdgeStyle;rounded=0;orthogonalLoop=1;jettySize=auto;html=1;fontSize=14;endArrow=none;" edge="1" parent="1" source="9tJJCU2KlGgRThkZYkHL-29">
          <mxGeometry relative="1" as="geometry">
            <mxPoint x="400" y="790" as="sourcePoint" />
            <mxPoint x="400" y="790" as="targetPoint" />
            <Array as="points">
              <mxPoint x="400" y="790" />
              <mxPoint x="400" y="790" />
            </Array>
          </mxGeometry>
        </mxCell>
        <mxCell id="9tJJCU2KlGgRThkZYkHL-44" value="false" style="text;html=1;strokeColor=none;fillColor=none;align=center;verticalAlign=middle;whiteSpace=wrap;rounded=0;fontSize=14;" vertex="1" parent="1">
          <mxGeometry x="370" y="810" width="60" height="30" as="geometry" />
        </mxCell>
        <mxCell id="9tJJCU2KlGgRThkZYkHL-48" value="" style="edgeStyle=orthogonalEdgeStyle;rounded=0;orthogonalLoop=1;jettySize=auto;html=1;entryX=0.5;entryY=0;entryDx=0;entryDy=0;fontSize=14;endArrow=none;" edge="1" parent="1" source="9tJJCU2KlGgRThkZYkHL-29" target="9tJJCU2KlGgRThkZYkHL-44">
          <mxGeometry relative="1" as="geometry">
            <mxPoint x="400" y="790" as="sourcePoint" />
            <mxPoint x="400" y="870" as="targetPoint" />
          </mxGeometry>
        </mxCell>
        <mxCell id="9tJJCU2KlGgRThkZYkHL-57" style="edgeStyle=orthogonalEdgeStyle;rounded=0;orthogonalLoop=1;jettySize=auto;html=1;entryX=0.5;entryY=0;entryDx=0;entryDy=0;fontSize=14;startArrow=none;" edge="1" parent="1" source="9tJJCU2KlGgRThkZYkHL-58" target="9tJJCU2KlGgRThkZYkHL-52">
          <mxGeometry relative="1" as="geometry" />
        </mxCell>
        <mxCell id="9tJJCU2KlGgRThkZYkHL-83" style="edgeStyle=orthogonalEdgeStyle;rounded=0;orthogonalLoop=1;jettySize=auto;html=1;entryX=0;entryY=0.5;entryDx=0;entryDy=0;fontSize=14;" edge="1" parent="1" source="9tJJCU2KlGgRThkZYkHL-50" target="9tJJCU2KlGgRThkZYkHL-82">
          <mxGeometry relative="1" as="geometry">
            <Array as="points">
              <mxPoint x="720" y="1030" />
              <mxPoint x="720" y="930" />
            </Array>
          </mxGeometry>
        </mxCell>
        <mxCell id="9tJJCU2KlGgRThkZYkHL-85" style="edgeStyle=orthogonalEdgeStyle;rounded=0;orthogonalLoop=1;jettySize=auto;html=1;entryX=0;entryY=0.5;entryDx=0;entryDy=0;fontSize=14;" edge="1" parent="1" source="9tJJCU2KlGgRThkZYkHL-50" target="9tJJCU2KlGgRThkZYkHL-84">
          <mxGeometry relative="1" as="geometry" />
        </mxCell>
        <mxCell id="9tJJCU2KlGgRThkZYkHL-87" style="edgeStyle=orthogonalEdgeStyle;rounded=0;orthogonalLoop=1;jettySize=auto;html=1;entryX=0;entryY=0.5;entryDx=0;entryDy=0;fontSize=14;" edge="1" parent="1" source="9tJJCU2KlGgRThkZYkHL-50" target="9tJJCU2KlGgRThkZYkHL-86">
          <mxGeometry relative="1" as="geometry">
            <Array as="points">
              <mxPoint x="720" y="1030" />
              <mxPoint x="720" y="1139" />
            </Array>
          </mxGeometry>
        </mxCell>
        <mxCell id="9tJJCU2KlGgRThkZYkHL-50" value="分配记录不为null &amp;amp;&amp;amp; 记录的用户id为当前的userId" style="rhombus;whiteSpace=wrap;html=1;labelBackgroundColor=#FFFFFF;fontSize=14;strokeWidth=2;fillColor=#ffcc99;strokeColor=#36393d;" vertex="1" parent="1">
          <mxGeometry x="190" y="980" width="420" height="100" as="geometry" />
        </mxCell>
        <mxCell id="9tJJCU2KlGgRThkZYkHL-61" style="edgeStyle=orthogonalEdgeStyle;rounded=0;orthogonalLoop=1;jettySize=auto;html=1;entryX=0.5;entryY=0;entryDx=0;entryDy=0;fontSize=14;startArrow=none;" edge="1" parent="1" source="9tJJCU2KlGgRThkZYkHL-62" target="9tJJCU2KlGgRThkZYkHL-60">
          <mxGeometry relative="1" as="geometry" />
        </mxCell>
        <mxCell id="9tJJCU2KlGgRThkZYkHL-52" value="获取一个重复捞取的Data" style="rounded=1;whiteSpace=wrap;html=1;labelBackgroundColor=#FFFFFF;fontSize=14;strokeWidth=2;" vertex="1" parent="1">
          <mxGeometry x="340" y="1145" width="120" height="60" as="geometry" />
        </mxCell>
        <mxCell id="9tJJCU2KlGgRThkZYkHL-56" style="edgeStyle=orthogonalEdgeStyle;rounded=0;orthogonalLoop=1;jettySize=auto;html=1;entryX=1;entryY=0.5;entryDx=0;entryDy=0;fontSize=14;" edge="1" parent="1" source="9tJJCU2KlGgRThkZYkHL-55" target="9tJJCU2KlGgRThkZYkHL-52">
          <mxGeometry relative="1" as="geometry" />
        </mxCell>
        <mxCell id="9tJJCU2KlGgRThkZYkHL-55" value="参数：&lt;br&gt;1.池子重复捞取的时间&lt;br&gt;2.池子重复捞取的字典&lt;br&gt;3.分配记录创建的时间" style="shape=parallelogram;perimeter=parallelogramPerimeter;whiteSpace=wrap;html=1;fixedSize=1;labelBackgroundColor=#FFFFFF;fontSize=14;strokeWidth=2;align=center;" vertex="1" parent="1">
          <mxGeometry x="530" y="1120" width="170" height="110" as="geometry" />
        </mxCell>
        <mxCell id="9tJJCU2KlGgRThkZYkHL-58" value="true" style="text;html=1;strokeColor=none;fillColor=none;align=center;verticalAlign=middle;whiteSpace=wrap;rounded=0;labelBackgroundColor=#FFFFFF;fontSize=14;" vertex="1" parent="1">
          <mxGeometry x="370" y="1100" width="60" height="30" as="geometry" />
        </mxCell>
        <mxCell id="9tJJCU2KlGgRThkZYkHL-59" value="" style="edgeStyle=orthogonalEdgeStyle;rounded=0;orthogonalLoop=1;jettySize=auto;html=1;entryX=0.5;entryY=0;entryDx=0;entryDy=0;fontSize=14;endArrow=none;" edge="1" parent="1" source="9tJJCU2KlGgRThkZYkHL-50" target="9tJJCU2KlGgRThkZYkHL-58">
          <mxGeometry relative="1" as="geometry">
            <mxPoint x="400" y="1080" as="sourcePoint" />
            <mxPoint x="400" y="1130" as="targetPoint" />
          </mxGeometry>
        </mxCell>
        <mxCell id="9tJJCU2KlGgRThkZYkHL-65" style="edgeStyle=orthogonalEdgeStyle;rounded=0;orthogonalLoop=1;jettySize=auto;html=1;entryX=1;entryY=0.5;entryDx=0;entryDy=0;fontSize=14;startArrow=none;" edge="1" parent="1" source="9tJJCU2KlGgRThkZYkHL-66" target="9tJJCU2KlGgRThkZYkHL-68">
          <mxGeometry relative="1" as="geometry">
            <mxPoint x="130" y="1330" as="targetPoint" />
          </mxGeometry>
        </mxCell>
        <mxCell id="9tJJCU2KlGgRThkZYkHL-60" value="如果当前Date在重复捞取Date之后" style="rhombus;whiteSpace=wrap;html=1;labelBackgroundColor=#FFFFFF;fontSize=14;strokeWidth=2;fillColor=#d5e8d4;strokeColor=#82b366;" vertex="1" parent="1">
          <mxGeometry x="285" y="1290" width="230" height="80" as="geometry" />
        </mxCell>
        <mxCell id="9tJJCU2KlGgRThkZYkHL-62" value="Date repeatGetTime" style="text;html=1;strokeColor=none;fillColor=none;align=center;verticalAlign=middle;whiteSpace=wrap;rounded=0;labelBackgroundColor=#FFFFFF;fontSize=14;" vertex="1" parent="1">
          <mxGeometry x="330" y="1230" width="140" height="30" as="geometry" />
        </mxCell>
        <mxCell id="9tJJCU2KlGgRThkZYkHL-63" value="" style="edgeStyle=orthogonalEdgeStyle;rounded=0;orthogonalLoop=1;jettySize=auto;html=1;entryX=0.5;entryY=0;entryDx=0;entryDy=0;fontSize=14;endArrow=none;" edge="1" parent="1" source="9tJJCU2KlGgRThkZYkHL-52" target="9tJJCU2KlGgRThkZYkHL-62">
          <mxGeometry relative="1" as="geometry">
            <mxPoint x="400" y="1205" as="sourcePoint" />
            <mxPoint x="400" y="1260" as="targetPoint" />
          </mxGeometry>
        </mxCell>
        <mxCell id="9tJJCU2KlGgRThkZYkHL-66" value="true" style="text;html=1;strokeColor=none;fillColor=none;align=center;verticalAlign=middle;whiteSpace=wrap;rounded=0;labelBackgroundColor=#FFFFFF;fontSize=14;" vertex="1" parent="1">
          <mxGeometry x="170" y="1315" width="60" height="30" as="geometry" />
        </mxCell>
        <mxCell id="9tJJCU2KlGgRThkZYkHL-67" value="" style="edgeStyle=orthogonalEdgeStyle;rounded=0;orthogonalLoop=1;jettySize=auto;html=1;entryX=1;entryY=0.5;entryDx=0;entryDy=0;fontSize=14;endArrow=none;" edge="1" parent="1" source="9tJJCU2KlGgRThkZYkHL-60" target="9tJJCU2KlGgRThkZYkHL-66">
          <mxGeometry relative="1" as="geometry">
            <mxPoint x="285" y="1330" as="sourcePoint" />
            <mxPoint x="130" y="1330" as="targetPoint" />
          </mxGeometry>
        </mxCell>
        <mxCell id="9tJJCU2KlGgRThkZYkHL-73" style="edgeStyle=orthogonalEdgeStyle;rounded=0;orthogonalLoop=1;jettySize=auto;html=1;entryX=0.5;entryY=0;entryDx=0;entryDy=0;fontSize=14;startArrow=none;" edge="1" parent="1" source="9tJJCU2KlGgRThkZYkHL-76" target="9tJJCU2KlGgRThkZYkHL-72">
          <mxGeometry relative="1" as="geometry" />
        </mxCell>
        <mxCell id="9tJJCU2KlGgRThkZYkHL-75" style="edgeStyle=orthogonalEdgeStyle;rounded=0;orthogonalLoop=1;jettySize=auto;html=1;entryX=1;entryY=0.5;entryDx=0;entryDy=0;fontSize=14;startArrow=none;" edge="1" parent="1" source="9tJJCU2KlGgRThkZYkHL-80" target="9tJJCU2KlGgRThkZYkHL-74">
          <mxGeometry relative="1" as="geometry" />
        </mxCell>
        <mxCell id="9tJJCU2KlGgRThkZYkHL-68" value="isBatch" style="rhombus;whiteSpace=wrap;html=1;labelBackgroundColor=#FFFFFF;fontSize=14;strokeWidth=2;" vertex="1" parent="1">
          <mxGeometry x="-45" y="1290" width="140" height="80" as="geometry" />
        </mxCell>
        <mxCell id="9tJJCU2KlGgRThkZYkHL-70" value="isBatch" style="text;html=1;strokeColor=none;fillColor=none;align=center;verticalAlign=middle;whiteSpace=wrap;rounded=0;labelBackgroundColor=#FFFFFF;fontSize=14;" vertex="1" parent="1">
          <mxGeometry x="-5" y="780" width="60" height="30" as="geometry" />
        </mxCell>
        <mxCell id="9tJJCU2KlGgRThkZYkHL-71" value="" style="edgeStyle=orthogonalEdgeStyle;rounded=0;orthogonalLoop=1;jettySize=auto;html=1;fontSize=14;endArrow=none;entryX=0.5;entryY=0;entryDx=0;entryDy=0;" edge="1" parent="1" source="9tJJCU2KlGgRThkZYkHL-10" target="9tJJCU2KlGgRThkZYkHL-70">
          <mxGeometry relative="1" as="geometry">
            <mxPoint x="25" y="410" as="sourcePoint" />
            <mxPoint x="20" y="770" as="targetPoint" />
            <Array as="points" />
          </mxGeometry>
        </mxCell>
        <mxCell id="9tJJCU2KlGgRThkZYkHL-72" value="批量捞取跳过" style="rounded=1;whiteSpace=wrap;html=1;labelBackgroundColor=#FFFFFF;fontSize=14;strokeWidth=2;" vertex="1" parent="1">
          <mxGeometry x="-35" y="1440" width="120" height="60" as="geometry" />
        </mxCell>
        <mxCell id="9tJJCU2KlGgRThkZYkHL-74" value="抛出自定义异常" style="rounded=1;whiteSpace=wrap;html=1;labelBackgroundColor=#FFFFFF;fontSize=14;strokeWidth=2;" vertex="1" parent="1">
          <mxGeometry x="-260" y="1300" width="120" height="60" as="geometry" />
        </mxCell>
        <mxCell id="9tJJCU2KlGgRThkZYkHL-76" value="true" style="text;html=1;strokeColor=none;fillColor=none;align=center;verticalAlign=middle;whiteSpace=wrap;rounded=0;labelBackgroundColor=#FFFFFF;fontSize=14;" vertex="1" parent="1">
          <mxGeometry x="-5" y="1390" width="60" height="30" as="geometry" />
        </mxCell>
        <mxCell id="9tJJCU2KlGgRThkZYkHL-77" value="" style="edgeStyle=orthogonalEdgeStyle;rounded=0;orthogonalLoop=1;jettySize=auto;html=1;entryX=0.5;entryY=0;entryDx=0;entryDy=0;fontSize=14;endArrow=none;" edge="1" parent="1" source="9tJJCU2KlGgRThkZYkHL-68" target="9tJJCU2KlGgRThkZYkHL-76">
          <mxGeometry relative="1" as="geometry">
            <mxPoint x="25" y="1370" as="sourcePoint" />
            <mxPoint x="25" y="1430" as="targetPoint" />
          </mxGeometry>
        </mxCell>
        <mxCell id="9tJJCU2KlGgRThkZYkHL-80" value="false" style="text;html=1;strokeColor=none;fillColor=none;align=center;verticalAlign=middle;whiteSpace=wrap;rounded=0;labelBackgroundColor=#FFFFFF;fontSize=14;" vertex="1" parent="1">
          <mxGeometry x="-130" y="1315" width="60" height="30" as="geometry" />
        </mxCell>
        <mxCell id="9tJJCU2KlGgRThkZYkHL-81" value="" style="edgeStyle=orthogonalEdgeStyle;rounded=0;orthogonalLoop=1;jettySize=auto;html=1;entryX=1;entryY=0.5;entryDx=0;entryDy=0;fontSize=14;endArrow=none;" edge="1" parent="1" source="9tJJCU2KlGgRThkZYkHL-68" target="9tJJCU2KlGgRThkZYkHL-80">
          <mxGeometry relative="1" as="geometry">
            <mxPoint x="-45" y="1330" as="sourcePoint" />
            <mxPoint x="-140" y="1330" as="targetPoint" />
          </mxGeometry>
        </mxCell>
        <mxCell id="9tJJCU2KlGgRThkZYkHL-82" value="捞取后下次跟进时间及状态重置" style="rounded=1;whiteSpace=wrap;html=1;labelBackgroundColor=#FFFFFF;fontSize=14;strokeWidth=2;" vertex="1" parent="1">
          <mxGeometry x="820" y="900" width="120" height="60" as="geometry" />
        </mxCell>
        <mxCell id="9tJJCU2KlGgRThkZYkHL-84" value="新建分配记录" style="rounded=1;whiteSpace=wrap;html=1;labelBackgroundColor=#FFFFFF;fontSize=14;strokeWidth=2;" vertex="1" parent="1">
          <mxGeometry x="820" y="1000" width="120" height="60" as="geometry" />
        </mxCell>
        <mxCell id="9tJJCU2KlGgRThkZYkHL-86" value="根据id修改线索结束时间" style="rounded=1;whiteSpace=wrap;html=1;labelBackgroundColor=#FFFFFF;fontSize=14;strokeWidth=2;" vertex="1" parent="1">
          <mxGeometry x="820" y="1109" width="120" height="60" as="geometry" />
        </mxCell>
        <mxCell id="9tJJCU2KlGgRThkZYkHL-89" value="ClueIds数组遍历" style="text;html=1;align=center;verticalAlign=middle;whiteSpace=wrap;rounded=0;dashed=1;labelBackgroundColor=#FFFFFF;fontSize=14;fillColor=#fad9d5;strokeColor=#ae4132;" vertex="1" parent="1">
          <mxGeometry x="-240" y="510" width="150" height="40" as="geometry" />
        </mxCell>
        <mxCell id="9tJJCU2KlGgRThkZYkHL-91" value="false" style="text;html=1;strokeColor=none;fillColor=none;align=center;verticalAlign=middle;whiteSpace=wrap;rounded=0;dashed=1;labelBackgroundColor=#FFFFFF;fontSize=14;" vertex="1" parent="1">
          <mxGeometry x="635" y="1000" width="60" height="30" as="geometry" />
        </mxCell>
        <mxCell id="9tJJCU2KlGgRThkZYkHL-92" value="return 全部获取成功" style="rounded=1;whiteSpace=wrap;html=1;labelBackgroundColor=#FFFFFF;fontSize=14;strokeWidth=2;fillColor=default;" vertex="1" parent="1">
          <mxGeometry x="296.25" y="1630" width="137.5" height="60" as="geometry" />
        </mxCell>
        <mxCell id="9tJJCU2KlGgRThkZYkHL-96" value="捞取限制时间内，不让捞取" style="text;html=1;strokeColor=#36393d;fillColor=#cce5ff;align=center;verticalAlign=middle;whiteSpace=wrap;rounded=0;dashed=1;labelBackgroundColor=#FFFFFF;fontSize=14;" vertex="1" parent="1">
          <mxGeometry x="-225" y="1230" width="180" height="30" as="geometry" />
        </mxCell>
        <mxCell id="9tJJCU2KlGgRThkZYkHL-98" value="最近捞取记录" style="whiteSpace=wrap;html=1;shape=mxgraph.basic.oval_callout;labelBackgroundColor=#FFFFFF;fontSize=14;strokeColor=#FF00FF;strokeWidth=2;fillColor=default;" vertex="1" parent="1">
          <mxGeometry x="485" y="820" width="115" height="60" as="geometry" />
        </mxCell>
      </root>
    </mxGraphModel>
  </diagram>
</mxfile>
